<svg xmlns="http://www.w3.org/2000/svg" xmlns:xlink="http://www.w3.org/1999/xlink" width="500" zoomAndPan="magnify" viewBox="0 0 375 374.999991" height="500" preserveAspectRatio="xMidYMid meet" version="1.0"><defs><clipPath id="3153371f7a"><path d="M 187 156 L 228.753906 156 L 228.753906 237.871094 L 187 237.871094 Z M 187 156 " clip-rule="nonzero"/></clipPath><clipPath id="7487497631"><path d="M 148.503906 156 L 189 156 L 189 194 L 148.503906 194 Z M 148.503906 156 " clip-rule="nonzero"/></clipPath><clipPath id="8e002a490b"><path d="M 166 141.121094 L 212 141.121094 L 212 157 L 166 157 Z M 166 141.121094 " clip-rule="nonzero"/></clipPath><clipPath id="2b3578d187"><path d="M 160.773438 163 L 216.523438 163 L 216.523438 226 L 160.773438 226 Z M 160.773438 163 " clip-rule="nonzero"/></clipPath><clipPath id="ce098bc1b2"><path d="M 192.367188 164.503906 L 212.296875 176.097656 C 214.703125 177.5 216.1875 180.074219 216.1875 182.859375 L 216.1875 206.101562 C 216.1875 208.886719 214.703125 211.460938 212.296875 212.863281 L 192.367188 224.457031 C 189.964844 225.855469 186.992188 225.855469 184.589844 224.457031 L 164.660156 212.863281 C 162.253906 211.460938 160.773438 208.886719 160.773438 206.101562 L 160.773438 182.859375 C 160.773438 180.074219 162.253906 177.5 164.660156 176.097656 L 184.589844 164.503906 C 186.992188 163.105469 189.964844 163.105469 192.367188 164.503906 " clip-rule="nonzero"/></clipPath><clipPath id="0ac284585b"><path d="M 164.847656 168 L 212.398438 168 L 212.398438 221 L 164.847656 221 Z M 164.847656 168 " clip-rule="nonzero"/></clipPath><clipPath id="270eed42a8"><path d="M 192.367188 169.242188 L 208.222656 178.46875 C 210.628906 179.867188 212.113281 182.445312 212.113281 185.230469 L 212.113281 203.730469 C 212.113281 206.515625 210.628906 209.09375 208.222656 210.492188 L 192.367188 219.71875 C 189.964844 221.117188 186.992188 221.117188 184.589844 219.71875 L 168.734375 210.492188 C 166.328125 209.09375 164.847656 206.515625 164.847656 203.730469 L 164.847656 185.230469 C 164.847656 182.445312 166.328125 179.867188 168.734375 178.46875 L 184.589844 169.242188 C 186.992188 167.84375 189.964844 167.84375 192.367188 169.242188 " clip-rule="nonzero"/></clipPath><clipPath id="18cb1c45ad"><path d="M 179 143.625 L 198 143.625 L 198 153 L 179 153 Z M 179 143.625 " clip-rule="nonzero"/></clipPath><clipPath id="353a06d290"><path d="M 177.933594 152 L 198.933594 152 L 198.933594 155.625 L 177.933594 155.625 Z M 177.933594 152 " clip-rule="nonzero"/></clipPath><clipPath id="35d08855ad"><path d="M 177.933594 150 L 198.933594 150 L 198.933594 155 L 177.933594 155 Z M 177.933594 150 " clip-rule="nonzero"/></clipPath><clipPath id="232befd36e"><path d="M 148 182.445312 L 159 182.445312 L 159 195 L 148 195 Z M 148 182.445312 " clip-rule="nonzero"/></clipPath><clipPath id="b66e0cad69"><path d="M 146.542969 201 L 160.042969 201 L 160.042969 222.945312 L 146.542969 222.945312 Z M 146.542969 201 " clip-rule="nonzero"/></clipPath><clipPath id="478ff6d091"><path d="M 146.542969 196 L 160.042969 196 L 160.042969 200 L 146.542969 200 Z M 146.542969 196 " clip-rule="nonzero"/></clipPath><clipPath id="f667d51d8d"><path d="M 164.847656 193 L 188 193 L 188 211.421875 L 164.847656 211.421875 Z M 164.847656 193 " clip-rule="nonzero"/></clipPath><clipPath id="4febf2566e"><path d="M 189 193 L 212.097656 193 L 212.097656 211.421875 L 189 211.421875 Z M 189 193 " clip-rule="nonzero"/></clipPath><clipPath id="ec28c5ac8d"><path d="M 184 180.671875 L 193 180.671875 L 193 190 L 184 190 Z M 184 180.671875 " clip-rule="nonzero"/></clipPath><clipPath id="9e28507a5c"><path d="M 193 67 L 343.199219 67 L 343.199219 364 L 193 364 Z M 193 67 " clip-rule="nonzero"/></clipPath><clipPath id="18723fa945"><path d="M 47.699219 67 L 194 67 L 194 203 L 47.699219 203 Z M 47.699219 67 " clip-rule="nonzero"/></clipPath><clipPath id="81f04e7130"><path d="M 112 9.433594 L 279 9.433594 L 279 66 L 112 66 Z M 112 9.433594 " clip-rule="nonzero"/></clipPath><clipPath id="38e1ff6521"><path d="M 92.992188 88.007812 L 297.550781 88.007812 L 297.550781 324.800781 L 92.992188 324.800781 Z M 92.992188 88.007812 " clip-rule="nonzero"/></clipPath><clipPath id="b7f3f37d4c"><path d="M 199.160156 89.652344 L 293.660156 144.636719 C 296.066406 146.035156 297.550781 148.613281 297.550781 151.398438 L 297.550781 261.414062 C 297.550781 264.199219 296.066406 266.777344 293.660156 268.175781 L 199.160156 323.160156 C 196.753906 324.558594 193.785156 324.558594 191.378906 323.160156 L 96.878906 268.175781 C 94.472656 266.777344 92.992188 264.199219 92.992188 261.414062 L 92.992188 151.398438 C 92.992188 148.613281 94.472656 146.035156 96.878906 144.636719 L 191.378906 89.652344 C 193.785156 88.253906 196.753906 88.253906 199.160156 89.652344 " clip-rule="nonzero"/></clipPath><clipPath id="1da4e60de3"><path d="M 108.027344 106 L 282.511719 106 L 282.511719 307 L 108.027344 307 Z M 108.027344 106 " clip-rule="nonzero"/></clipPath><clipPath id="b4534ece97"><path d="M 199.160156 107.152344 L 278.621094 153.382812 C 281.03125 154.785156 282.511719 157.363281 282.511719 160.148438 L 282.511719 252.664062 C 282.511719 255.449219 281.03125 258.027344 278.621094 259.425781 L 199.160156 305.660156 C 196.753906 307.058594 193.785156 307.058594 191.378906 305.660156 L 111.917969 259.425781 C 109.511719 258.027344 108.027344 255.449219 108.027344 252.664062 L 108.027344 160.148438 C 108.027344 157.363281 109.511719 154.785156 111.917969 153.382812 L 191.378906 107.152344 C 193.785156 105.753906 196.753906 105.753906 199.160156 107.152344 " clip-rule="nonzero"/></clipPath><clipPath id="aa7f85a1b6"><path d="M 162 18.671875 L 228 18.671875 L 228 53 L 162 53 Z M 162 18.671875 " clip-rule="nonzero"/></clipPath><clipPath id="a36260dbf2"><path d="M 156.335938 54 L 234.335938 54 L 234.335938 64.421875 L 156.335938 64.421875 Z M 156.335938 54 " clip-rule="nonzero"/></clipPath><clipPath id="cc076e68b2"><path d="M 156.335938 46 L 234.335938 46 L 234.335938 61 L 156.335938 61 Z M 156.335938 46 " clip-rule="nonzero"/></clipPath><clipPath id="2e65ba7d1e"><path d="M 46 161.976562 L 84 161.976562 L 84 207 L 46 207 Z M 46 161.976562 " clip-rule="nonzero"/></clipPath><clipPath id="63e2955b60"><path d="M 40.46875 230 L 89.96875 230 L 89.96875 310.476562 L 40.46875 310.476562 Z M 40.46875 230 " clip-rule="nonzero"/></clipPath><clipPath id="aa75bae2bf"><path d="M 40.46875 213 L 89.96875 213 L 89.96875 224 L 40.46875 224 Z M 40.46875 213 " clip-rule="nonzero"/></clipPath><clipPath id="364fa1691c"><path d="M 108.027344 201 L 193 201 L 193 267.925781 L 108.027344 267.925781 Z M 108.027344 201 " clip-rule="nonzero"/></clipPath><clipPath id="364adb5446"><path d="M 198 201 L 282.777344 201 L 282.777344 267.925781 L 198 267.925781 Z M 198 201 " clip-rule="nonzero"/></clipPath><clipPath id="4759eb1b3a"><path d="M 179 155.425781 L 212 155.425781 L 212 189 L 179 189 Z M 179 155.425781 " clip-rule="nonzero"/></clipPath></defs><path fill="#1e1a64" d="M 187.429688 179.445312 L 181.097656 179.445312 L 181.097656 173.117188 L 187.429688 173.117188 L 187.429688 179.445312 " fill-opacity="1" fill-rule="nonzero"/><path fill="#1e1a64" d="M 196.15625 179.445312 L 189.824219 179.445312 L 189.824219 173.117188 L 196.15625 173.117188 L 196.15625 179.445312 " fill-opacity="1" fill-rule="nonzero"/><path fill="#1e1a64" d="M 187.429688 188.445312 L 181.097656 188.445312 L 181.097656 182.117188 L 187.429688 182.117188 L 187.429688 188.445312 " fill-opacity="1" fill-rule="nonzero"/><path fill="#1e1a64" d="M 196.15625 188.445312 L 189.824219 188.445312 L 189.824219 182.117188 L 196.15625 182.117188 L 196.15625 188.445312 " fill-opacity="1" fill-rule="nonzero"/><g clip-path="url(#3153371f7a)"><path fill="#5257b3" d="M 224.378906 168.394531 L 204.320312 156.824219 L 204.320312 159.109375 L 189.214844 159.109375 L 219.203125 176.40625 L 219.203125 211.683594 L 190.371094 228.3125 C 188.09375 229.628906 187.3125 232.542969 188.628906 234.820312 C 189.945312 237.097656 192.859375 237.875 195.136719 236.5625 L 224.378906 219.695312 C 227.066406 218.144531 228.734375 215.253906 228.734375 212.152344 L 228.734375 175.9375 C 228.734375 172.835938 227.066406 169.945312 224.378906 168.394531 " fill-opacity="1" fill-rule="nonzero"/></g><g clip-path="url(#7487497631)"><path fill="#5257b3" d="M 172.933594 159.109375 L 172.933594 156.824219 L 152.878906 168.394531 C 150.1875 169.945312 148.519531 172.835938 148.519531 175.9375 L 148.519531 188.683594 C 148.519531 191.316406 150.652344 193.445312 153.285156 193.445312 C 155.917969 193.445312 158.050781 191.316406 158.050781 188.683594 L 158.050781 176.40625 L 188.039062 159.109375 L 172.933594 159.109375 " fill-opacity="1" fill-rule="nonzero"/></g><g clip-path="url(#8e002a490b)"><path fill="#1e1a64" d="M 188.628906 141.125 L 166.082031 148.671875 L 188.628906 156.222656 L 211.171875 148.671875 L 188.628906 141.125 " fill-opacity="1" fill-rule="nonzero"/></g><path fill="#1e1a64" d="M 202.414062 157.203125 L 174.839844 157.203125 L 174.839844 151.554688 L 202.414062 151.554688 L 202.414062 157.203125 " fill-opacity="1" fill-rule="nonzero"/><path fill="#1e1a64" d="M 207.15625 155.730469 C 207.039062 155.386719 207.066406 154.996094 207.277344 154.699219 C 207.34375 154.609375 207.382812 154.5 207.382812 154.378906 C 207.382812 154.214844 207.304688 154.066406 207.191406 153.964844 L 207.191406 149.730469 L 206.464844 149.730469 L 206.464844 153.964844 C 206.351562 154.066406 206.277344 154.214844 206.277344 154.378906 C 206.277344 154.5 206.3125 154.609375 206.378906 154.699219 C 206.589844 154.996094 206.617188 155.386719 206.5 155.730469 L 206 157.203125 L 207.660156 157.203125 L 207.15625 155.730469 " fill-opacity="1" fill-rule="nonzero"/><g clip-path="url(#2b3578d187)"><g clip-path="url(#ce098bc1b2)"><path fill="#5257b3" d="M 160.773438 162.238281 L 216.523438 162.238281 L 216.523438 226.722656 L 160.773438 226.722656 Z M 160.773438 162.238281 " fill-opacity="1" fill-rule="nonzero"/></g></g><g clip-path="url(#0ac284585b)"><g clip-path="url(#270eed42a8)"><path fill="#1e1a64" d="M 164.847656 166.980469 L 212.398438 166.980469 L 212.398438 221.980469 L 164.847656 221.980469 Z M 164.847656 166.980469 " fill-opacity="1" fill-rule="nonzero"/></g></g><g clip-path="url(#18cb1c45ad)"><path fill="#ffffff" d="M 184.792969 151.625 C 184.015625 151.417969 183.234375 151.25 182.4375 151.128906 C 183.757812 151.445312 185.316406 151.90625 186.730469 152.566406 C 186.765625 152.367188 186.832031 152.183594 186.929688 152.007812 C 187.03125 151.832031 187.160156 151.679688 187.316406 151.550781 C 187.46875 151.421875 187.644531 151.324219 187.835938 151.253906 C 188.027344 151.183594 188.226562 151.148438 188.429688 151.148438 C 188.636719 151.148438 188.832031 151.183594 189.027344 151.253906 C 189.21875 151.324219 189.390625 151.421875 189.546875 151.550781 C 189.703125 151.683594 189.832031 151.835938 189.929688 152.007812 C 190.03125 152.183594 190.097656 152.371094 190.128906 152.566406 C 191.542969 151.910156 193.101562 151.445312 194.421875 151.128906 C 193.628906 151.253906 192.847656 151.417969 192.074219 151.625 L 197.148438 149.824219 L 190.199219 151.78125 L 196.167969 147.789062 L 189.9375 151.375 L 194.703125 146.054688 L 189.582031 151.042969 L 192.847656 144.730469 L 189.152344 150.8125 L 190.710938 143.90625 L 188.675781 150.695312 L 188.429688 143.625 L 188.1875 150.695312 L 186.152344 143.90625 L 187.710938 150.820312 L 184.019531 144.738281 L 187.277344 151.042969 L 182.160156 146.054688 L 186.925781 151.375 L 180.695312 147.789062 L 186.660156 151.78125 L 179.714844 149.824219 Z M 184.792969 151.625 " fill-opacity="1" fill-rule="nonzero"/></g><g clip-path="url(#353a06d290)"><path fill="#d5def4" d="M 189.140625 154.660156 L 189.050781 154.699219 L 189.050781 154.792969 C 189.050781 155.089844 188.78125 155.339844 188.460938 155.339844 C 188.140625 155.339844 187.871094 155.085938 187.871094 154.792969 L 187.871094 154.699219 L 187.78125 154.660156 C 183.105469 152.710938 178 153.007812 177.949219 153.011719 L 177.949219 153.296875 C 178 153.292969 182.996094 153.003906 187.585938 154.890625 C 187.617188 155.101562 187.71875 155.277344 187.882812 155.417969 C 188.050781 155.554688 188.242188 155.625 188.460938 155.625 C 188.679688 155.625 188.871094 155.554688 189.035156 155.417969 C 189.203125 155.277344 189.300781 155.101562 189.335938 154.890625 C 193.925781 153.003906 198.859375 153.289062 198.910156 153.292969 L 198.910156 153.007812 C 198.859375 153.003906 193.816406 152.710938 189.140625 154.660156 Z M 189.140625 154.660156 " fill-opacity="1" fill-rule="nonzero"/></g><g clip-path="url(#35d08855ad)"><path fill="#d5def4" d="M 188.714844 154.601562 C 189.570312 154.058594 192.476562 152.59375 198.914062 152.617188 L 197.578125 150.976562 C 197.578125 150.976562 191.640625 151.691406 188.433594 154.042969 C 185.226562 151.691406 179.289062 150.976562 179.289062 150.976562 L 177.949219 152.617188 C 184.382812 152.59375 187.292969 154.058594 188.148438 154.601562 C 188.335938 154.722656 188.527344 154.722656 188.714844 154.601562 Z M 188.714844 154.601562 " fill-opacity="1" fill-rule="nonzero"/></g><g clip-path="url(#232befd36e)"><path fill="#221e68" d="M 148.296875 194.664062 L 148.296875 188.554688 L 158.300781 182.445312 L 158.300781 194.664062 L 148.296875 194.664062 " fill-opacity="1" fill-rule="nonzero"/></g><g clip-path="url(#b66e0cad69)"><path fill="#221e68" d="M 146.550781 203.082031 C 147.515625 203.082031 148.296875 203.863281 148.296875 204.824219 L 148.296875 211 L 152.8125 222.941406 L 152.8125 213.335938 C 151.910156 213.105469 151.257812 212.246094 151.359375 211.253906 C 151.449219 210.355469 152.175781 209.621094 153.074219 209.519531 C 154.253906 209.390625 155.25 210.304688 155.25 211.453125 C 155.25 212.359375 154.628906 213.121094 153.789062 213.335938 L 153.789062 222.941406 L 158.300781 211 L 158.300781 204.824219 C 158.300781 203.863281 159.082031 203.082031 160.050781 203.082031 L 160.050781 201.167969 L 146.550781 201.167969 L 146.550781 203.082031 " fill-opacity="1" fill-rule="nonzero"/></g><g clip-path="url(#478ff6d091)"><path fill="#221e68" d="M 146.550781 197.835938 C 146.550781 198.605469 147.175781 199.226562 147.945312 199.226562 L 158.652344 199.226562 C 159.425781 199.226562 160.050781 198.605469 160.050781 197.835938 C 160.050781 197.066406 159.425781 196.441406 158.652344 196.441406 L 147.945312 196.441406 C 147.175781 196.441406 146.550781 197.066406 146.550781 197.835938 " fill-opacity="1" fill-rule="nonzero"/></g><g clip-path="url(#f667d51d8d)"><path fill="#f5f5f5" d="M 187.558594 211.371094 C 187.570312 211.390625 187.585938 211.40625 187.597656 211.421875 C 182.847656 206.972656 173.90625 206.417969 172.90625 206.371094 C 172.847656 206.367188 172.800781 206.324219 172.773438 206.261719 C 170.09375 199.070312 166.097656 194.847656 164.957031 193.738281 C 164.847656 193.632812 164.90625 193.429688 165.042969 193.421875 C 165.636719 193.394531 166.855469 193.367188 168.476562 193.457031 C 169.945312 195.734375 171.890625 199.351562 173.382812 204.308594 C 173.558594 204.886719 174.003906 205.277344 174.515625 205.3125 C 175.464844 205.367188 183.914062 206.039062 187.558594 211.371094 " fill-opacity="1" fill-rule="nonzero"/></g><g clip-path="url(#4febf2566e)"><path fill="#f5f5f5" d="M 211.992188 193.738281 C 210.851562 194.847656 206.851562 199.070312 204.167969 206.261719 C 204.148438 206.324219 204.097656 206.367188 204.039062 206.371094 C 203.035156 206.417969 194.097656 206.972656 189.347656 211.421875 C 189.363281 211.40625 189.375 211.390625 189.386719 211.371094 C 193.035156 206.039062 201.480469 205.367188 202.429688 205.3125 C 202.945312 205.28125 203.386719 204.886719 203.5625 204.308594 C 205.054688 199.351562 207 195.734375 208.46875 193.457031 C 210.085938 193.367188 211.308594 193.394531 211.902344 193.421875 C 212.042969 193.429688 212.097656 193.632812 211.992188 193.738281 " fill-opacity="1" fill-rule="nonzero"/></g><path fill="#5257b3" d="M 187.179688 209.007812 C 182.855469 204.613281 175.492188 204.027344 174.570312 203.96875 C 174.515625 203.964844 174.464844 203.921875 174.445312 203.855469 C 173.097656 199.367188 171.371094 195.929688 169.941406 193.5625 C 168.800781 191.664062 167.839844 190.457031 167.414062 189.949219 C 167.324219 189.839844 167.382812 189.65625 167.515625 189.648438 C 167.777344 189.632812 168.183594 189.617188 168.710938 189.617188 C 170.699219 189.617188 174.359375 189.847656 178.25 191.246094 C 178.722656 191.726562 179.183594 192.230469 179.628906 192.757812 C 184.496094 198.519531 186.472656 205.625 187.179688 209.007812 " fill-opacity="1" fill-rule="nonzero"/><path fill="#5257b3" d="M 209.53125 189.949219 C 209.105469 190.457031 208.148438 191.664062 207.003906 193.5625 C 205.574219 195.929688 203.851562 199.367188 202.5 203.855469 C 202.480469 203.921875 202.429688 203.964844 202.375 203.96875 C 201.460938 204.027344 194.09375 204.609375 189.765625 209.007812 C 190.472656 205.621094 192.449219 198.519531 197.316406 192.757812 C 197.761719 192.230469 198.21875 191.730469 198.695312 191.25 C 202.585938 189.847656 206.25 189.617188 208.230469 189.617188 C 208.757812 189.617188 209.167969 189.632812 209.433594 189.648438 C 209.558594 189.65625 209.621094 189.839844 209.53125 189.949219 " fill-opacity="1" fill-rule="nonzero"/><path fill="#d5def4" d="M 203.355469 186.457031 C 200.644531 187.976562 198.414062 189.953125 196.582031 192.125 C 190.402344 199.4375 188.742188 208.949219 188.507812 210.53125 C 188.484375 210.679688 188.472656 210.757812 188.472656 210.757812 C 188.472656 210.757812 188.460938 210.679688 188.441406 210.53125 C 188.199219 208.949219 186.542969 199.4375 180.363281 192.125 C 178.53125 189.953125 176.300781 187.976562 173.589844 186.457031 C 173.554688 186.4375 173.570312 186.390625 173.605469 186.390625 C 173.609375 186.390625 173.609375 186.390625 173.613281 186.390625 C 175.191406 186.707031 184.878906 188.859375 188.472656 194.941406 C 192.070312 188.859375 201.75 186.707031 203.332031 186.390625 C 203.335938 186.390625 203.339844 186.390625 203.339844 186.390625 C 203.375 186.390625 203.390625 186.4375 203.355469 186.457031 " fill-opacity="1" fill-rule="nonzero"/><g clip-path="url(#ec28c5ac8d)"><path fill="#d5def4" d="M 192.898438 185.144531 C 192.898438 187.617188 190.917969 189.617188 188.472656 189.617188 C 186.027344 189.617188 184.046875 187.617188 184.046875 185.144531 C 184.046875 182.675781 186.027344 180.671875 188.472656 180.671875 C 190.917969 180.671875 192.898438 182.675781 192.898438 185.144531 " fill-opacity="1" fill-rule="nonzero"/></g><path fill="#1e1a64" d="M 191.042969 150.546875 L 167.71875 150.546875 L 167.71875 127.246094 L 191.042969 127.246094 L 191.042969 150.546875 " fill-opacity="1" fill-rule="nonzero"/><path fill="#1e1a64" d="M 223.175781 150.546875 L 199.851562 150.546875 L 199.851562 127.246094 L 223.175781 127.246094 L 223.175781 150.546875 " fill-opacity="1" fill-rule="nonzero"/><path fill="#1e1a64" d="M 191.042969 183.6875 L 167.71875 183.6875 L 167.71875 160.386719 L 191.042969 160.386719 L 191.042969 183.6875 " fill-opacity="1" fill-rule="nonzero"/><path fill="#1e1a64" d="M 223.175781 183.6875 L 199.851562 183.6875 L 199.851562 160.386719 L 223.175781 160.386719 L 223.175781 183.6875 " fill-opacity="1" fill-rule="nonzero"/><g clip-path="url(#9e28507a5c)"><path fill="#5257b3" d="M 327.085938 109.859375 L 253.238281 67.257812 L 253.238281 75.664062 L 197.605469 75.664062 L 308.035156 139.359375 L 308.035156 269.25 L 201.871094 330.488281 C 193.476562 335.328125 190.601562 346.054688 195.449219 354.441406 C 200.292969 362.828125 211.027344 365.699219 219.421875 360.859375 L 327.085938 298.75 C 336.984375 293.042969 343.132812 282.402344 343.132812 270.980469 L 343.132812 137.628906 C 343.132812 126.207031 336.984375 115.570312 327.085938 109.859375 " fill-opacity="1" fill-rule="nonzero"/></g><g clip-path="url(#18723fa945)"><path fill="#5257b3" d="M 137.65625 75.664062 L 137.65625 67.257812 L 63.808594 109.859375 C 53.910156 115.570312 47.761719 126.207031 47.761719 137.628906 L 47.761719 184.566406 C 47.761719 194.25 55.617188 202.101562 65.308594 202.101562 C 75 202.101562 82.859375 194.25 82.859375 184.566406 L 82.859375 139.359375 L 193.285156 75.664062 L 137.65625 75.664062 " fill-opacity="1" fill-rule="nonzero"/></g><g clip-path="url(#81f04e7130)"><path fill="#1e1a64" d="M 195.449219 9.441406 L 112.429688 37.238281 L 195.449219 65.03125 L 278.464844 37.238281 L 195.449219 9.441406 " fill-opacity="1" fill-rule="nonzero"/></g><path fill="#1e1a64" d="M 246.21875 68.648438 L 144.679688 68.648438 L 144.679688 47.851562 L 246.21875 47.851562 L 246.21875 68.648438 " fill-opacity="1" fill-rule="nonzero"/><path fill="#1e1a64" d="M 263.675781 63.226562 C 263.246094 61.957031 263.34375 60.515625 264.125 59.421875 C 264.363281 59.09375 264.503906 58.691406 264.503906 58.25 C 264.503906 57.640625 264.226562 57.097656 263.800781 56.726562 L 263.800781 41.125 L 261.136719 41.125 L 261.136719 56.726562 C 260.707031 57.097656 260.433594 57.640625 260.433594 58.25 C 260.433594 58.691406 260.574219 59.09375 260.8125 59.421875 C 261.59375 60.515625 261.691406 61.957031 261.257812 63.226562 L 259.414062 68.648438 L 265.523438 68.648438 L 263.675781 63.226562 " fill-opacity="1" fill-rule="nonzero"/><g clip-path="url(#38e1ff6521)"><g clip-path="url(#b7f3f37d4c)"><path fill="#5257b3" d="M 92.992188 87.390625 L 297.550781 87.390625 L 297.550781 325.421875 L 92.992188 325.421875 Z M 92.992188 87.390625 " fill-opacity="1" fill-rule="nonzero"/></g></g><g clip-path="url(#1da4e60de3)"><g clip-path="url(#b4534ece97)"><path fill="#1e1a64" d="M 108.027344 104.890625 L 282.511719 104.890625 L 282.511719 307.921875 L 108.027344 307.921875 Z M 108.027344 104.890625 " fill-opacity="1" fill-rule="nonzero"/></g></g><g clip-path="url(#aa7f85a1b6)"><path fill="#ffffff" d="M 181.8125 49.179688 C 178.9375 48.378906 176.023438 47.75 173.074219 47.285156 C 177.976562 48.492188 183.765625 50.253906 189.019531 52.761719 C 189.140625 52.007812 189.386719 51.296875 189.757812 50.632812 C 190.132812 49.96875 190.609375 49.386719 191.1875 48.894531 C 191.765625 48.398438 192.410156 48.019531 193.125 47.757812 C 193.835938 47.492188 194.574219 47.363281 195.332031 47.363281 C 196.089844 47.363281 196.828125 47.496094 197.539062 47.757812 C 198.253906 48.023438 198.898438 48.402344 199.476562 48.898438 C 200.054688 49.390625 200.53125 49.972656 200.902344 50.636719 C 201.273438 51.300781 201.519531 52.011719 201.640625 52.765625 C 206.894531 50.257812 212.679688 48.488281 217.585938 47.289062 C 214.640625 47.753906 211.734375 48.382812 208.859375 49.179688 L 227.714844 42.304688 L 201.90625 49.765625 L 224.074219 34.546875 L 200.929688 48.222656 L 218.636719 27.941406 L 199.601562 46.960938 L 211.730469 22.894531 L 198.015625 46.082031 L 203.808594 19.742188 L 196.242188 45.632812 L 195.332031 18.671875 L 194.421875 45.632812 L 186.867188 19.742188 L 192.660156 46.101562 L 178.941406 22.914062 L 191.054688 46.960938 L 172.042969 27.941406 L 189.746094 48.222656 L 166.59375 34.546875 L 188.761719 49.765625 L 162.960938 42.304688 Z M 181.8125 49.179688 " fill-opacity="1" fill-rule="nonzero"/></g><g clip-path="url(#a36260dbf2)"><path fill="#d5def4" d="M 197.960938 60.746094 L 197.636719 60.886719 L 197.636719 61.246094 C 197.636719 62.378906 196.632812 63.335938 195.441406 63.335938 C 194.253906 63.335938 193.253906 62.371094 193.253906 61.246094 L 193.253906 60.886719 L 192.921875 60.746094 C 175.546875 53.308594 156.59375 54.441406 156.402344 54.457031 L 156.402344 55.542969 C 156.589844 55.53125 175.144531 54.429688 192.191406 61.628906 C 192.25 62.015625 192.378906 62.382812 192.566406 62.730469 C 192.757812 63.074219 193.003906 63.375 193.300781 63.628906 C 193.597656 63.886719 193.933594 64.085938 194.300781 64.222656 C 194.667969 64.359375 195.046875 64.425781 195.441406 64.425781 C 195.832031 64.425781 196.214844 64.359375 196.582031 64.222656 C 196.949219 64.085938 197.28125 63.886719 197.578125 63.628906 C 197.878906 63.375 198.121094 63.074219 198.3125 62.730469 C 198.503906 62.382812 198.628906 62.015625 198.6875 61.628906 C 215.738281 54.429688 234.074219 55.523438 234.257812 55.535156 L 234.257812 54.445312 C 234.074219 54.429688 215.339844 53.308594 197.960938 60.746094 Z M 197.960938 60.746094 " fill-opacity="1" fill-rule="nonzero"/></g><g clip-path="url(#cc076e68b2)"><path fill="#d5def4" d="M 196.386719 60.523438 C 199.566406 58.453125 210.363281 52.871094 234.265625 52.953125 L 229.3125 46.699219 C 229.3125 46.699219 207.253906 49.421875 195.339844 58.398438 C 183.433594 49.421875 161.371094 46.699219 161.371094 46.699219 L 156.402344 52.953125 C 180.300781 52.871094 191.097656 58.453125 194.28125 60.523438 C 194.601562 60.730469 194.953125 60.835938 195.332031 60.835938 C 195.714844 60.835938 196.066406 60.730469 196.386719 60.523438 Z M 196.386719 60.523438 " fill-opacity="1" fill-rule="nonzero"/></g><g clip-path="url(#2e65ba7d1e)"><path fill="#221e68" d="M 46.898438 206.78125 L 46.898438 184.378906 L 83.578125 161.980469 L 83.578125 206.78125 L 46.898438 206.78125 " fill-opacity="1" fill-rule="nonzero"/></g><g clip-path="url(#63e2955b60)"><path fill="#221e68" d="M 40.484375 237.640625 C 44.027344 237.640625 46.898438 240.503906 46.898438 244.035156 L 46.898438 266.679688 L 63.449219 310.46875 L 63.449219 275.246094 C 60.136719 274.394531 57.75 271.246094 58.121094 267.601562 C 58.453125 264.3125 61.121094 261.617188 64.417969 261.253906 C 68.734375 260.773438 72.390625 264.132812 72.390625 268.34375 C 72.390625 271.667969 70.109375 274.449219 67.027344 275.246094 L 67.027344 310.46875 L 83.578125 266.679688 L 83.578125 244.035156 C 83.578125 240.503906 86.445312 237.640625 89.988281 237.640625 L 89.988281 230.632812 L 40.484375 230.632812 L 40.484375 237.640625 " fill-opacity="1" fill-rule="nonzero"/></g><g clip-path="url(#aa75bae2bf)"><path fill="#221e68" d="M 40.484375 218.40625 C 40.484375 221.226562 42.777344 223.511719 45.609375 223.511719 L 84.867188 223.511719 C 87.695312 223.511719 89.988281 221.226562 89.988281 218.40625 C 89.988281 215.585938 87.695312 213.296875 84.867188 213.296875 L 45.609375 213.296875 C 42.777344 213.296875 40.484375 215.585938 40.484375 218.40625 " fill-opacity="1" fill-rule="nonzero"/></g><g clip-path="url(#364fa1691c)"><path fill="#f5f5f5" d="M 192.03125 267.75 C 192.074219 267.8125 192.125 267.871094 192.175781 267.933594 C 174.605469 251.65625 141.539062 249.621094 137.839844 249.449219 C 137.621094 249.433594 137.445312 249.285156 137.351562 249.054688 C 127.441406 222.742188 112.652344 207.289062 108.433594 203.234375 C 108.035156 202.855469 108.246094 202.105469 108.753906 202.082031 C 110.953125 201.980469 115.464844 201.871094 121.449219 202.203125 C 126.886719 210.53125 134.078125 223.773438 139.601562 241.90625 C 140.25 244.019531 141.894531 245.457031 143.792969 245.578125 C 147.304688 245.785156 178.546875 248.230469 192.03125 267.75 " fill-opacity="1" fill-rule="nonzero"/></g><g clip-path="url(#364adb5446)"><path fill="#f5f5f5" d="M 282.394531 203.234375 C 278.171875 207.289062 263.382812 222.742188 253.464844 249.054688 C 253.378906 249.285156 253.191406 249.433594 252.984375 249.449219 C 249.273438 249.621094 216.207031 251.65625 198.648438 267.933594 C 198.699219 267.871094 198.753906 267.8125 198.792969 267.75 C 212.277344 248.230469 243.519531 245.785156 247.035156 245.578125 C 248.929688 245.46875 250.566406 244.019531 251.210938 241.90625 C 256.734375 223.773438 263.925781 210.53125 269.367188 202.203125 C 275.347656 201.871094 279.871094 201.980469 282.070312 202.082031 C 282.582031 202.105469 282.777344 202.855469 282.394531 203.234375 " fill-opacity="1" fill-rule="nonzero"/></g><path fill="#5257b3" d="M 190.625 259.101562 C 174.640625 243.015625 147.402344 240.875 144 240.664062 C 143.792969 240.652344 143.605469 240.492188 143.53125 240.246094 C 138.539062 223.832031 132.160156 211.246094 126.875 202.585938 C 122.648438 195.644531 119.101562 191.222656 117.53125 189.367188 C 117.195312 188.976562 117.414062 188.296875 117.894531 188.273438 C 118.863281 188.210938 120.375 188.160156 122.324219 188.160156 C 129.667969 188.160156 143.214844 189.003906 157.59375 194.121094 C 159.351562 195.875 161.058594 197.722656 162.707031 199.652344 C 180.707031 220.730469 188.011719 246.726562 190.625 259.101562 " fill-opacity="1" fill-rule="nonzero"/><path fill="#5257b3" d="M 273.296875 189.367188 C 271.710938 191.222656 268.179688 195.644531 263.945312 202.585938 C 258.664062 211.246094 252.289062 223.832031 247.296875 240.246094 C 247.222656 240.492188 247.035156 240.652344 246.824219 240.664062 C 243.453125 240.875 216.195312 243.007812 200.195312 259.097656 C 202.8125 246.710938 210.121094 220.722656 228.113281 199.652344 C 229.761719 197.722656 231.460938 195.882812 233.214844 194.128906 C 247.601562 189.003906 261.15625 188.160156 268.488281 188.160156 C 270.4375 188.160156 271.953125 188.210938 272.929688 188.273438 C 273.402344 188.296875 273.632812 188.976562 273.296875 189.367188 " fill-opacity="1" fill-rule="nonzero"/><path fill="#d5def4" d="M 250.453125 176.597656 C 240.429688 182.160156 232.175781 189.390625 225.394531 197.332031 C 202.542969 224.089844 196.414062 258.890625 195.535156 264.675781 C 195.449219 265.222656 195.410156 265.507812 195.410156 265.507812 C 195.410156 265.507812 195.375 265.222656 195.289062 264.675781 C 194.40625 258.890625 188.273438 224.089844 165.421875 197.332031 C 158.640625 189.390625 150.390625 182.160156 140.367188 176.597656 C 140.242188 176.527344 140.292969 176.351562 140.421875 176.351562 C 140.433594 176.351562 140.441406 176.355469 140.453125 176.355469 C 146.296875 177.507812 182.113281 185.382812 195.410156 207.640625 C 208.710938 185.382812 244.523438 177.507812 250.367188 176.355469 C 250.378906 176.355469 250.390625 176.351562 250.394531 176.351562 C 250.523438 176.351562 250.578125 176.527344 250.453125 176.597656 " fill-opacity="1" fill-rule="nonzero"/><g clip-path="url(#4759eb1b3a)"><path fill="#d5def4" d="M 211.773438 171.796875 C 211.773438 180.835938 204.449219 188.164062 195.410156 188.164062 C 186.371094 188.164062 179.046875 180.835938 179.046875 171.796875 C 179.046875 162.753906 186.371094 155.429688 195.410156 155.429688 C 204.449219 155.429688 211.773438 162.753906 211.773438 171.796875 " fill-opacity="1" fill-rule="nonzero"/></g></svg>